<?xml version="1.0" encoding="UTF-8"?>
<svg id="_레이어_1" data-name="레이어 1" xmlns="http://www.w3.org/2000/svg" viewBox="0 0 1920 651.65">
  <defs>
    <style>
      .cls-1 {
        fill: #009e42;
      }
    </style>
  </defs>
  <path class="cls-1" d="M920.36,308.86c6.02,6.42,9.28,14.16,8.95,21.22v115.95h35.76v-115.99c-.18-35.1-30.58-64.74-66.37-64.74l-85.54.03v180.7h35.76v-146.93h49.78c8.32.33,16.2,3.89,21.66,9.76Z"/>
  <rect class="cls-1" x="738.43" y="265.32" width="35.76" height="180.71"/>
  <rect class="cls-1" x="738.43" y="201.41" width="35.76" height="35.76"/>
  <polygon class="cls-1" points="1658.15 267.32 1627.55 384.3 1596.96 267.32 1556.08 267.32 1525.49 384.3 1494.89 267.32 1460.19 267.32 1506.87 445.81 1542.32 445.81 1576.52 315.02 1610.73 445.81 1646.18 445.81 1692.86 267.32 1658.15 267.32"/>
  <path class="cls-1" d="M1359.27,261.11c-48.85,0-88.6,40.52-88.6,90.32v5.79c0,64.26,46.64,93.02,92.86,93.02,35.57,0,60.15-9.07,77.27-28.53l-21.37-21.15c-15.17,13.83-33.64,18.87-59.76,16.35-28.26-2.74-53.31-24.73-52.56-46.14l.03-.95h139.2c.3-2.41,1.13-9.71,1.13-18.39,0-49.8-39.57-90.32-88.2-90.32ZM1412.19,338.83h-103.94v-.98c0-20.13,21.82-42.69,51.02-42.75h.13c16.01,0,30.93,5.73,40.94,15.72,7.64,7.62,11.85,17.23,11.85,27.03v.98Z"/>
  <path class="cls-1" d="M538.61,265.32h-39.85c-27.35.06-50.45,22.27-50.45,48.51v132.19h35.76v-146.93h54.53v-33.77Z"/>
  <path class="cls-1" d="M607.27,445.99l92.2.04v-121.39c0-37.69-21.66-59.31-59.42-59.31h-66.33v33.77h66.33c14.4,0,24.85,10.74,24.85,25.54v6.49h-57.63c-31.67,0-57.43,25.76-57.43,57.43s25.77,57.44,57.43,57.44ZM607.27,364.88l57.63.02v47.32l-57.63.02c-13.06,0-23.68-10.63-23.68-23.68s10.62-23.67,23.68-23.67Z"/>
  <path class="cls-1" d="M1135.82,299.18v-33.86h-53.2c-49.82,0-90.35,40.53-90.35,90.35s40.53,90.35,90.35,90.35h53.2v-33.86h-53.2c-31.15,0-56.5-25.34-56.5-56.5s25.34-56.5,56.5-56.5h53.2Z"/>
  <polygon class="cls-1" points="1257.03 265.32 1198.4 265.32 1198.4 295.09 1166.74 295.09 1166.74 446.03 1202.5 446.03 1202.5 299.1 1257.03 299.1 1257.03 265.32"/>
  <path class="cls-1" d="M414.88,372.03c0-40.8-32.38-73.99-72.17-73.99h-79.82v-52.61h86.46v34.59h35.77v-38.69h-31.63v-29.67h-126.35v234.37h115.57c39.79,0,72.17-33.2,72.17-74ZM262.9,331.81h79.82c21.37,0,38.75,18.04,38.75,40.22s-17.38,40.22-38.75,40.22h-79.82v-80.44Z"/>
</svg>